<?xml version="1.0" encoding="UTF-8"?>
<!DOCTYPE svg PUBLIC "-//W3C//DTD SVG 1.1//EN" "http://www.w3.org/Graphics/SVG/1.1/DTD/svg11.dtd">
<!-- Creator: CorelDRAW X7 -->
<svg xmlns="http://www.w3.org/2000/svg" xml:space="preserve" width="3.93701in" height="3.93701in" version="1.1" style="shape-rendering:geometricPrecision; text-rendering:geometricPrecision; image-rendering:optimizeQuality; fill-rule:evenodd; clip-rule:evenodd"
viewBox="0 0 3937 3937"
 xmlns:xlink="http://www.w3.org/1999/xlink">
 <defs>
  <style type="text/css">
   <![CDATA[
    .fil0 {fill:black}
   ]]>
  </style>
 </defs>
 <g id="Layer_x0020_1">
  <metadata id="CorelCorpID_0Corel-Layer"/>
  <path class="fil0" d="M1674 264l195 -201c83,-84 216,-84 298,0l1708 1752c83,85 83,222 0,306l-1708 1753c-82,84 -216,84 -298,0l-195 -201c-83,-85 -81,-225 4,-309l675 -804 -2142 0c-117,0 -211,-96 -211,-217l0 -749c0,-120 94,-217 211,-217l2149 0 -682 -804c-86,-84 -88,-224 -4,-309l0 0z"/>
 </g>
</svg>
