<?xml version="1.0" encoding="UTF-8"?>
<!DOCTYPE svg PUBLIC "-//W3C//DTD SVG 1.1//EN" "http://www.w3.org/Graphics/SVG/1.1/DTD/svg11.dtd">
<!-- Creator: CorelDRAW X7 -->
<svg xmlns="http://www.w3.org/2000/svg" xml:space="preserve" width="3.93701in" height="3.93701in" version="1.1" style="shape-rendering:geometricPrecision; text-rendering:geometricPrecision; image-rendering:optimizeQuality; fill-rule:evenodd; clip-rule:evenodd"
viewBox="0 0 3937 3937"
 xmlns:xlink="http://www.w3.org/1999/xlink">
 <defs>
  <style type="text/css">
   <![CDATA[
    .fil0 {fill:black}
   ]]>
  </style>
 </defs>
 <g id="Layer_x0020_1">
  <metadata id="CorelCorpID_0Corel-Layer"/>
  <path class="fil0" d="M264 2263l-200 -195c-85,-83 -85,-216 0,-298l1752 -1708c84,-83 221,-83 305,0l1753 1708c84,83 84,216 0,298l-201 195c-85,84 -225,82 -309,-4l-804 -675 0 2142c0,117 -96,211 -216,211l-750 0c-120,0 -217,-94 -217,-211l1 -2148 -805 681c-83,87 -223,88 -309,4l0 0z"/>
 </g>
</svg>
