<?xml version="1.0" encoding="UTF-8"?>
<!DOCTYPE svg PUBLIC "-//W3C//DTD SVG 1.1//EN" "http://www.w3.org/Graphics/SVG/1.1/DTD/svg11.dtd">
<!-- Creator: CorelDRAW X7 -->
<svg xmlns="http://www.w3.org/2000/svg" xml:space="preserve" width="3.93701in" height="3.93701in" version="1.1" style="shape-rendering:geometricPrecision; text-rendering:geometricPrecision; image-rendering:optimizeQuality; fill-rule:evenodd; clip-rule:evenodd"
viewBox="0 0 3937 3937"
 xmlns:xlink="http://www.w3.org/1999/xlink" class='btn'>
 <g id="Layer_x0020_1">
  <metadata id="CorelCorpID_0Corel-Layer"/>
  <path d="M409 605l0 -343c0,-145 118,-262 262,-262l3004 0c145,0 263,117 262,261l0 3005c0,145 -117,262 -262,262l-343 0c-147,0 -265,-122 -262,-268l-95 -1284 -1884 1884c-103,103 -268,103 -371,0l-643 -642c-103,-104 -103,-269 0,-372l1890 -1889 -1289 -90c-148,4 -269,-114 -269,-262l0 0z"/>
 </g>
</svg>
